<svg width="27" height="26" viewBox="0 0 27 26" fill="none" xmlns="http://www.w3.org/2000/svg">
<path d="M11.25 15.167C10.6287 15.167 10.125 15.652 10.125 16.2503C10.125 16.8486 10.6287 17.3337 11.25 17.3337H15.75C16.3713 17.3337 16.875 16.8486 16.875 16.2503C16.875 15.652 16.3713 15.167 15.75 15.167H11.25Z" fill="#9F9F9F"/>
<path fill-rule="evenodd" clip-rule="evenodd" d="M9 3.25033C9 2.65202 8.49632 2.16699 7.875 2.16699C7.25368 2.16699 6.75 2.65202 6.75 3.25033V4.33366H5.625C3.76104 4.33366 2.25 5.78873 2.25 7.58366V19.5003C2.25 21.2952 3.76104 22.7503 5.625 22.7503H21.375C23.239 22.7503 24.75 21.2953 24.75 19.5003V7.58366C24.75 5.78873 23.239 4.33366 21.375 4.33366H20.25V3.25033C20.25 2.65202 19.7463 2.16699 19.125 2.16699C18.5037 2.16699 18 2.65202 18 3.25033V4.33366H9V3.25033ZM4.5 19.5003V11.917H22.5V19.5003C22.5 20.0986 21.9963 20.5837 21.375 20.5837H5.625C5.00368 20.5837 4.5 20.0986 4.5 19.5003ZM4.5 9.75033H22.5V7.58366C22.5 6.98535 21.9963 6.50033 21.375 6.50033H20.25C20.25 7.09863 19.7463 7.58366 19.125 7.58366C18.5037 7.58366 18 7.09863 18 6.50033H9C9 7.09863 8.49632 7.58366 7.875 7.58366C7.25368 7.58366 6.75 7.09863 6.75 6.50033H5.625C5.00368 6.50033 4.5 6.98535 4.5 7.58366V9.75033Z" fill="#9F9F9F"/>
</svg>