<svg width="24" height="23" viewBox="0 0 24 23" fill="none" xmlns="http://www.w3.org/2000/svg">
<path d="M23.5557 11.5001C23.5557 5.14878 18.4069 5.53131e-05 12.0557 5.53131e-05C5.70438 5.53131e-05 0.555664 5.14878 0.555664 11.5001C0.555664 17.24 4.76105 21.9976 10.2588 22.8604V14.8243H7.33887V11.5001H10.2588V8.96646C10.2588 6.08427 11.9757 4.49224 14.6025 4.49224C15.8607 4.49224 17.1768 4.71685 17.1768 4.71685V7.54693H15.7266C14.2981 7.54693 13.8525 8.4334 13.8525 9.34284V11.5001H17.042L16.5321 14.8243H13.8525V22.8604C19.3503 21.9976 23.5557 17.24 23.5557 11.5001Z" fill="#1877F2"/>
</svg>