<svg width="24" height="21" viewBox="0 0 24 21" fill="none" xmlns="http://www.w3.org/2000/svg">
<path d="M2.4 10.2822L2.02395 10.6137C1.54213 11.0385 0.782641 11.0182 0.327587 10.5685C-0.127467 10.1187 -0.105767 9.40985 0.376055 8.98512L9.52816 0.917284C10.9156 -0.30576 13.0844 -0.305762 14.4718 0.917283L23.6239 8.98512C24.1058 9.40985 24.1275 10.1187 23.6724 10.5685C23.2174 11.0182 22.4579 11.0385 21.9761 10.6137L21.6 10.2822V18.7599C21.6 19.9971 20.5255 21 19.2 21H15C14.6686 21 14.4 20.7493 14.4 20.44V14.2796C14.4 13.0425 13.3255 12.0395 12 12.0395C10.6745 12.0395 9.6 13.0425 9.6 14.2796V20.44C9.6 20.7493 9.33137 21 9 21H4.8C3.47452 21 2.4 19.9971 2.4 18.7599V10.2822Z" fill="#0E0E0E"/>
</svg>