<svg width="30" height="23" viewBox="0 0 30 23" fill="none" xmlns="http://www.w3.org/2000/svg">
<g clip-path="url(#clip0_263_790)">
<path d="M0 7.5H30V15H0V7.5Z" fill="white"/>
<path d="M0 0H30V7.5H0V0Z" fill="#CE1126"/>
<path d="M0 15H30V22.5H0V15Z" fill="black"/>
<path d="M18.3276 9.86866C18.2818 9.84452 18.2302 9.80567 18.2131 9.78219C18.1873 9.74606 18.2024 9.74474 18.3086 9.77357C18.4991 9.82514 18.6218 9.80502 18.7436 9.70188L18.8512 9.6113L18.9776 9.67568C19.0472 9.71083 19.1211 9.73514 19.1424 9.72955C19.1972 9.7151 19.3108 9.56942 19.3071 9.51901C19.3027 9.4566 19.3553 9.4722 19.3807 9.5406C19.4312 9.67445 19.3577 9.82826 19.2275 9.86233C19.164 9.879 19.1053 9.87285 19.0091 9.83934C18.891 9.79828 18.8709 9.79878 18.8116 9.8441C18.6788 9.94593 18.4938 9.95545 18.3277 9.86874L18.3276 9.86866ZM18.7984 9.4382C18.7521 9.37941 18.6966 9.15712 18.7146 9.10251C18.7304 9.05529 18.7466 9.04585 18.7897 9.05932C18.8651 9.08297 18.8825 9.13486 18.8712 9.31092C18.8624 9.45446 18.8412 9.49215 18.7984 9.4382ZM13.2543 9.27849C13.2391 9.38606 13.4452 9.65359 13.5382 9.70204C13.475 9.73037 13.3964 9.71765 13.3384 9.74942C13.0143 10.0736 11.8302 11.2279 11.614 11.5039C12.2545 11.5167 12.9648 11.4953 13.5651 11.4678C13.5646 11.0327 13.9773 11.0102 14.2534 10.8518C14.3955 11.0755 14.7522 11.0584 14.7968 11.3952C14.7968 11.7984 14.7976 12.4057 14.7976 12.8442H9.3264C9.23032 13.2693 8.84659 13.5935 8.31201 13.4601C8.47739 13.2874 8.75593 13.228 8.85562 12.9893C8.93971 12.4666 8.68761 12.1438 8.52453 11.8473C8.7942 11.7492 8.83509 11.7247 9.1092 11.5405C8.91688 12.1251 9.60945 12.0609 10.1237 12.0475C10.1409 11.849 10.1309 11.6146 9.97857 11.5856C10.1753 11.5142 10.208 11.4897 10.5222 11.2233V12.011C11.7445 12.011 13.063 12.002 14.3109 12.002C14.3109 11.7554 14.3762 11.3594 14.1811 11.3594C13.9947 11.3594 14.1723 11.8663 14.0276 11.8663H11.1018C11.1018 11.7573 11.099 11.5293 11.099 11.3651C11.223 11.2409 11.2082 11.2517 12.0555 10.4043C12.1399 10.3199 12.7342 9.78301 13.2543 9.27849ZM20.5676 9.25771C20.7719 9.36758 20.9336 9.51966 21.1836 9.58371C21.1546 9.68718 21.0625 9.72824 21.0383 9.83729V12.047C21.3177 12.1086 21.3766 11.9503 21.5095 11.866C21.5458 12.2197 21.771 12.5664 21.763 12.844H20.5676V9.25771ZM18.9735 10.4413C18.9735 10.4413 19.4084 10.074 19.4084 10.0599V11.9884L19.7216 11.988C19.7216 11.2532 19.712 10.508 19.712 9.82522C19.8391 9.69794 20.0881 9.51383 20.1503 9.38507V12.8389C19.268 12.8389 17.6218 12.84 17.4042 12.84C17.3637 12.1231 17.3568 11.3808 18.1925 11.5403V11.2478C18.1671 11.1979 18.1211 11.26 18.1104 11.1949C18.2432 11.0621 18.2881 11.0282 18.6474 10.7145C18.6474 11.0931 18.654 11.9872 18.654 11.9872C18.7419 11.9872 18.9129 11.9875 18.9707 11.9875C18.9707 11.9875 18.9737 10.4907 18.9737 10.4413H18.9735ZM17.9426 11.9686C18.0014 12.057 18.2017 12.0554 18.1923 11.9067C18.1586 11.7841 17.8954 11.8308 17.9426 11.9687V11.9686Z" fill="#007A3D"/>
<path d="M9.99288 13.4193C10.0855 13.4193 10.1606 13.3443 10.1606 13.2517C10.1606 13.1591 10.0855 13.084 9.99288 13.084C9.90027 13.084 9.8252 13.1591 9.8252 13.2517C9.8252 13.3443 9.90027 13.4193 9.99288 13.4193Z" fill="#007A3D"/>
<path d="M15.1679 9.26082C15.3722 9.3707 15.5339 9.52278 15.7839 9.58683C15.7549 9.69029 15.6627 9.73135 15.6387 9.84032V12.0501C15.9179 12.1117 15.9768 11.9533 16.1098 11.869C16.1459 12.2227 16.3713 12.5695 16.3633 12.847H15.1677C15.1679 11.6518 15.1679 10.4564 15.1679 9.26082Z" fill="#007A3D"/>
</g>
<defs>
<clipPath id="clip0_263_790">
<rect width="30" height="22.5" fill="white"/>
</clipPath>
</defs>
</svg>