<svg width="28" height="20" viewBox="0 0 28 20" fill="none" xmlns="http://www.w3.org/2000/svg">
<path fill-rule="evenodd" clip-rule="evenodd" d="M5.63783 14.975C5.34082 14.9277 5.02508 14.9012 4.68933 14.9012C2.21637 14.9012 0.835253 16.3504 0.305794 17.0725C0.219918 17.1965 0.174078 17.3486 0.174078 17.5056C0.174078 17.5099 0.174073 17.5142 0.173428 17.5178C0.169554 17.7831 0.169556 18.1345 0.169556 18.4866C0.169556 18.8824 0.458821 19.2036 0.815238 19.2036H5.44607C5.37311 18.9756 5.33501 18.7332 5.33501 18.4866C5.33501 17.6705 5.33501 16.6982 5.33759 16.1238C5.33759 15.715 5.44284 15.3171 5.63783 14.975ZM20.1857 19.2036H7.27206C7.10095 19.2036 6.9363 19.1283 6.81556 18.9935C6.69417 18.8594 6.62638 18.6766 6.62638 18.4866C6.62638 17.6727 6.62637 16.7046 6.62896 16.1281C6.62896 16.1266 6.62896 16.1252 6.62896 16.1238C6.62896 15.9589 6.68062 15.7997 6.77424 15.672C7.57553 14.6559 9.99684 12.0328 13.7289 12.0328C17.9529 12.0328 20.074 14.6509 20.7229 15.6383C20.7946 15.7595 20.8314 15.8965 20.8314 16.0363V18.4866C20.8314 18.6766 20.7636 18.8594 20.6422 18.9935C20.5215 19.1283 20.3568 19.2036 20.1857 19.2036ZM22.0117 19.2036H26.6425C26.9989 19.2036 27.2882 18.8824 27.2882 18.4866V17.5049C27.2882 17.3464 27.2411 17.1929 27.1545 17.0675C26.6225 16.3504 25.2407 14.9012 22.7684 14.9012C22.4501 14.9012 22.1499 14.9248 21.8671 14.9679C22.0343 15.2927 22.1227 15.6613 22.1227 16.0377V18.4866C22.1227 18.7332 22.0847 18.9756 22.0117 19.2036ZM4.68933 6.29621C2.90725 6.29621 1.46092 7.90246 1.46092 9.8816C1.46092 11.8607 2.90725 13.467 4.68933 13.467C6.47141 13.467 7.91774 11.8607 7.91774 9.8816C7.91774 7.90246 6.47141 6.29621 4.68933 6.29621ZM22.7684 6.29621C20.9863 6.29621 19.54 7.90246 19.54 9.8816C19.54 11.8607 20.9863 13.467 22.7684 13.467C24.5505 13.467 25.9968 11.8607 25.9968 9.8816C25.9968 7.90246 24.5505 6.29621 22.7684 6.29621ZM13.7289 0.55957C11.2346 0.55957 9.2091 2.80905 9.2091 5.57913C9.2091 8.34921 11.2346 10.5987 13.7289 10.5987C16.2231 10.5987 18.2487 8.34921 18.2487 5.57913C18.2487 2.80905 16.2231 0.55957 13.7289 0.55957Z" fill="#7FE47E"/>
</svg>