<svg width="14" height="20" viewBox="0 0 14 20" fill="none" xmlns="http://www.w3.org/2000/svg">
<path fill-rule="evenodd" clip-rule="evenodd" d="M3 4C3 1.79086 4.79086 0 7 0C9.20914 0 11 1.79086 11 4V10C11 12.2091 9.20914 14 7 14C4.79086 14 3 12.2091 3 10V4ZM7 2C5.89543 2 5 2.89543 5 4V10C5 11.1046 5.89543 12 7 12C8.10457 12 9 11.1046 9 10V4C9 2.89543 8.10457 2 7 2Z" fill="white"/>
<path d="M8 16.9291C10.7247 16.5395 12.9417 14.5809 13.71 11.9995C13.8989 11.3648 14 10.6933 14 10C14 9.44771 13.5523 9 13 9C12.4477 9 12 9.44771 12 10C12 10.4981 11.9275 10.9774 11.7931 11.429C11.1782 13.4951 9.26354 15 7 15C4.73646 15 2.82181 13.4951 2.20692 11.429C2.07252 10.9774 2 10.4981 2 10C2 9.44771 1.55228 9 1 9C0.447715 9 0 9.44771 0 10C0 10.6933 0.101097 11.3648 0.290014 11.9995C1.05827 14.5809 3.27525 16.5395 6 16.9291V19C6 19.5523 6.44772 20 7 20C7.55228 20 8 19.5523 8 19V16.9291Z" fill="white"/>
</svg>