<svg width="23" height="23" viewBox="0 0 23 23" fill="none" xmlns="http://www.w3.org/2000/svg">
<path d="M10.4176 0.583522L7.05378 5.92172C6.87081 6.21209 6.56768 6.4155 6.21895 6.48191L1.01582 7.47275C0.0641877 7.65398 -0.325644 8.74732 0.313422 9.44275L4.0064 13.4614C4.25539 13.7324 4.3637 14.0953 4.30154 14.4504L3.21142 20.6783C3.04532 21.6272 4.05907 22.3681 4.97884 21.9701L10.9777 19.3738C11.3096 19.2301 11.6904 19.2301 12.0223 19.3738L18.0212 21.9701C18.9409 22.3681 19.9547 21.6272 19.7886 20.6783L18.6985 14.4504C18.6363 14.0953 18.7446 13.7324 18.9936 13.4614L22.6866 9.44275C23.3256 8.74732 22.9358 7.65397 21.9842 7.47275L16.7811 6.48191C16.4323 6.4155 16.1292 6.21209 15.9462 5.92172L12.5824 0.583521C12.0921 -0.194508 10.9079 -0.194506 10.4176 0.583522Z" fill="#7FE47E"/>
</svg>