<svg width="22" height="21" viewBox="0 0 22 21" fill="none" xmlns="http://www.w3.org/2000/svg">
<path fill-rule="evenodd" clip-rule="evenodd" d="M4.19048 0H17.8095C20.1239 0 22 1.79086 22 4V17C22 19.2091 20.1239 21 17.8095 21H4.19048C1.87614 21 0 19.2091 0 17V4C0 1.79086 1.87614 0 4.19048 0ZM16.7619 11.75C17.1958 11.75 17.5476 11.4142 17.5476 11V7.96C17.542 7.54804 17.1935 7.21539 16.7619 7.21H13.619C13.1851 7.21 12.8333 7.54579 12.8333 7.96C12.8333 8.37421 13.1851 8.71 13.619 8.71H14.5514L10.8219 12.27L8.72667 10.27C8.17066 9.7411 7.27124 9.7411 6.71524 10.27L4.02286 12.84C3.71648 13.1328 3.71648 13.6072 4.02286 13.9C4.1694 14.0416 4.36955 14.1209 4.5781 14.12C4.78688 14.1221 4.98748 14.0426 5.13333 13.9L7.76286 11.5L9.8581 13.5C10.4141 14.0289 11.3135 14.0289 11.8695 13.5L15.9762 9.55V11C15.9762 11.4142 16.328 11.75 16.7619 11.75Z" fill="#7FE47E"/>
</svg>