<svg width="30" height="19" viewBox="0 0 30 19" fill="none" xmlns="http://www.w3.org/2000/svg">
<path d="M0 0H30V19H0V0Z" fill="#F0F0F0"/>
<path d="M0 2.375H30V4.74977H0V2.375ZM0 7.12515H30V9.49992H0V7.12515ZM0 11.8747H30V14.2495H0V11.8747ZM0 16.6248H30V18.9996H0V16.6248Z" fill="#D80027"/>
<path d="M0 0H15V10.2308H0V0Z" fill="#2E52B2"/>
<path d="M5.84889 4.19149L5.6073 4.89753H4.8259L5.45818 5.33365L5.2166 6.03963L5.84889 5.60351L6.48076 6.03963L6.23924 5.33365L6.87152 4.89753H6.09006L5.84889 4.19149ZM6.09006 7.44536L5.84889 6.73938L5.6073 7.44536H4.8259L5.45818 7.88154L5.2166 8.58752L5.84889 8.15134L6.48076 8.58752L6.23924 7.88154L6.87152 7.44536H6.09006ZM2.78766 7.44536L2.54643 6.73938L2.30484 7.44536H1.52344L2.15572 7.88154L1.91414 8.58752L2.54643 8.15134L3.17836 8.58752L2.93684 7.88154L3.569 7.44536H2.78766ZM2.54643 4.19149L2.30484 4.89753H1.52344L2.15572 5.33365L1.91414 6.03963L2.54643 5.60351L3.17836 6.03963L2.93684 5.33365L3.569 4.89753H2.78766L2.54643 4.19149ZM5.84889 1.64355L5.6073 2.34965H4.8259L5.45818 2.78582L5.2166 3.4918L5.84889 3.05563L6.48076 3.4918L6.23924 2.78582L6.87152 2.34965H6.09006L5.84889 1.64355ZM2.54643 1.64355L2.30484 2.34965H1.52344L2.15572 2.78582L1.91414 3.4918L2.54643 3.05563L3.17836 3.4918L2.93684 2.78582L3.569 2.34965H2.78766L2.54643 1.64355ZM9.15129 4.19149L8.90977 4.89753H8.12836L8.76059 5.33365L8.51912 6.03963L9.15129 5.60351L9.78328 6.03963L9.5417 5.33365L10.174 4.89753H9.39258L9.15129 4.19149ZM9.39258 7.44536L9.15129 6.73938L8.90977 7.44536H8.12836L8.76059 7.88154L8.51912 8.58752L9.15129 8.15134L9.78328 8.58752L9.5417 7.88154L10.174 7.44536H9.39258ZM12.695 7.44536L12.4538 6.73938L12.2122 7.44536H11.4309L12.063 7.88154L11.8215 8.58752L12.4538 8.15134L13.0857 8.58752L12.8442 7.88154L13.4764 7.44536H12.695ZM12.4538 4.19149L12.2122 4.89753H11.4309L12.063 5.33365L11.8215 6.03963L12.4538 5.60351L13.0857 6.03963L12.8442 5.33365L13.4764 4.89753H12.695L12.4538 4.19149ZM9.15129 1.64355L8.90977 2.34965H8.12836L8.76059 2.78582L8.51912 3.4918L9.15129 3.05563L9.78328 3.4918L9.5417 2.78582L10.174 2.34965H9.39258L9.15129 1.64355ZM12.4538 1.64355L12.2122 2.34965H11.4309L12.063 2.78582L11.8215 3.4918L12.4538 3.05563L13.0857 3.4918L12.8442 2.78582L13.4764 2.34965H12.695L12.4538 1.64355Z" fill="#F0F0F0"/>
</svg>